<svg version="1.1" id="Layer_1" xmlns="http://www.w3.org/2000/svg" xmlns:xlink="http://www.w3.org/1999/xlink" x="0px" y="0px"
	 width="100%" viewBox="0 0 442 442" enable-background="new 0 0 442 442" xml:space="preserve">
<path fill="#0755E9" opacity="1.000000" stroke="none" 
	d="
M443.000000,206.000000 
	C443.000000,216.354233 443.000000,226.708450 442.611816,237.720764 
	C440.823334,248.393906 439.726807,258.462830 437.962097,268.413269 
	C433.755127,292.134827 424.632019,314.109863 412.530365,334.761322 
	C399.816620,356.457306 383.766113,375.623688 364.012268,391.218201 
	C351.942596,400.746552 339.289124,409.838898 325.881958,417.302063 
	C302.901459,430.094299 278.029449,437.975189 251.762100,441.037750 
	C247.818741,441.497528 243.919601,442.336456 240.000000,443.000000 
	C228.312439,443.000000 216.624878,443.000000 204.281525,442.613037 
	C200.968018,442.147278 198.266037,442.351471 195.659805,441.943634 
	C178.994232,439.335815 162.592300,435.821503 146.610260,430.116241 
	C116.347084,419.312897 90.035301,402.312042 66.943954,380.284790 
	C59.488140,373.172607 53.009151,364.976379 46.517517,356.925964 
	C32.956619,340.108734 22.872667,321.227203 15.109437,301.150635 
	C9.018354,285.398438 4.751995,269.120880 2.920590,252.258987 
	C2.546039,248.810471 1.653673,245.418198 1.000000,242.000000 
	C1.000000,228.979111 1.000000,215.958206 1.385356,202.285065 
	C2.514936,195.468124 3.003981,189.259705 4.051394,183.146988 
	C7.151531,165.054550 12.350845,147.537872 20.075748,130.890747 
	C32.924252,103.202263 50.163464,78.734398 73.069527,58.230087 
	C86.149307,46.521748 100.172760,36.326767 115.490143,27.943174 
	C139.470764,14.817974 164.906601,5.943707 192.236176,2.958818 
	C196.181702,2.527893 200.079895,1.663695 204.000000,1.000000 
	C215.687561,1.000000 227.375122,1.000000 239.720551,1.386048 
	C246.538208,2.512063 252.719315,3.108316 258.853912,4.018167 
	C279.661835,7.104279 299.414093,13.650757 318.315216,22.758629 
	C335.056854,30.825895 350.957550,40.388203 364.496582,53.181374 
	C375.971802,64.024414 387.458923,75.064369 397.393860,87.275719 
	C410.184387,102.997032 419.975342,120.787552 427.379791,139.781189 
	C434.053375,156.899918 438.974945,174.447708 441.029449,192.754974 
	C441.526917,197.187866 442.334839,201.585922 443.000000,206.000000 
M238.936249,395.389313 
	C234.876099,405.063232 230.815933,414.737152 226.580460,424.828796 
	C278.572083,422.727203 323.017792,404.218628 361.536896,369.005646 
	C329.626801,355.219757 298.414154,341.735138 266.866547,328.105835 
	C257.509064,350.490997 248.287048,372.552124 238.936249,395.389313 
M20.000053,240.498123 
	C20.663017,245.177750 21.414185,249.846863 21.973686,254.538818 
	C24.402769,274.909058 31.264984,293.991974 40.261211,312.151367 
	C45.987324,323.709900 53.535809,334.419464 60.831230,345.125305 
	C64.828476,350.991119 69.997276,356.058563 75.212868,362.158600 
	C88.738113,329.526337 101.795410,298.023102 114.859627,266.503174 
	C82.977531,253.325485 51.188381,240.186203 18.731150,226.770798 
	C19.195002,231.449005 19.597612,235.509552 20.000053,240.498123 
M406.038605,234.460281 
	C380.382538,245.151260 354.726501,255.842255 328.836670,266.630646 
	C342.014587,298.390625 355.151367,330.051483 368.469086,362.148346 
	C403.945435,323.621094 422.691132,278.933472 424.616669,227.062454 
	C418.432251,229.482193 412.578033,231.772720 406.038605,234.460281 
M285.685852,29.930830 
	C266.867188,22.582281 247.111176,20.539301 226.424881,18.948402 
	C239.938858,51.450249 253.116440,83.143028 266.245728,114.719688 
	C298.127930,101.545425 329.661804,88.515099 361.472717,75.370293 
	C347.686615,61.604736 320.211700,40.856457 285.685852,29.930830 
M400.399689,207.065704 
	C408.426483,210.397583 416.453308,213.729462 424.596985,217.109863 
	C423.262238,159.412888 396.175964,109.512535 368.426147,82.735939 
	C355.268616,114.440285 342.186249,145.963547 329.080841,177.542297 
	C352.803955,187.427673 376.213013,197.182175 400.399689,207.065704 
M210.030487,19.969551 
	C160.710251,22.323414 118.881065,41.858284 81.835464,75.261635 
	C114.481155,88.761658 146.017059,101.802750 177.441528,114.797752 
	C190.683487,82.749496 203.768936,51.080013 217.202682,18.567564 
	C214.347992,19.057238 212.607010,19.355873 210.030487,19.969551 
M33.063972,147.723694 
	C32.373428,149.704788 31.512325,151.644455 31.019522,153.673584 
	C27.314829,168.927658 23.420746,184.143829 20.165762,199.494797 
	C18.979378,205.089951 19.368240,211.019119 19.019369,217.129669 
	C51.426170,203.716492 83.075569,190.616806 114.629898,177.556473 
	C101.565590,146.052216 88.506721,114.561089 74.980278,81.942421 
	C69.685730,88.366699 64.715080,94.142349 60.026207,100.138351 
	C48.842426,114.439857 40.621155,130.445465 33.063972,147.723694 
M164.265030,416.042786 
	C181.146469,422.237213 198.834137,423.601074 217.092850,425.084351 
	C203.815140,393.013062 190.727783,361.401581 177.561340,329.599030 
	C145.609375,342.863190 114.326637,355.849487 81.696075,369.395355 
	C91.401138,376.869659 99.744331,383.985657 108.768456,390.095978 
	C125.619392,401.505951 143.738815,410.480591 164.265030,416.042786 
M351.687164,208.961304 
	C340.515930,204.299149 329.378479,199.552643 318.142303,195.052628 
	C316.122864,194.243866 313.352905,193.591141 311.512482,194.326157 
	C297.265961,200.015808 283.175537,206.095215 269.006622,211.981247 
	C265.189697,213.566910 262.414124,215.269745 264.844879,220.188965 
	C265.498749,221.512131 264.530273,223.656540 264.253204,225.415588 
	C263.824615,228.136887 263.656464,229.912155 267.304962,231.305038 
	C280.274292,236.256271 292.891724,242.123459 305.814270,247.206909 
	C309.352539,248.598785 312.450348,251.574677 317.386383,249.415726 
	C333.795013,242.238815 350.508514,235.760101 367.088196,228.972412 
	C372.465027,226.771164 377.789886,224.442993 383.677673,221.944046 
	C372.734222,217.405670 362.604004,213.204544 351.687164,208.961304 
M235.484985,350.995392 
	C240.005951,339.920624 244.570419,328.863159 248.999512,317.751770 
	C249.640015,316.144928 250.367172,313.987122 249.808655,312.578003 
	C243.972717,297.854248 237.920349,283.215515 231.830841,268.593658 
	C230.593353,265.622253 229.553986,262.463470 224.795319,264.776276 
	C222.728317,265.780853 219.617111,264.437561 217.010559,264.612823 
	C215.643082,264.704742 213.567459,265.437012 213.126953,266.451355 
	C207.390411,279.660614 201.739578,292.912567 196.418335,306.293457 
	C194.747391,310.495239 192.346710,314.396027 195.081131,319.824554 
	C200.084335,329.757050 203.759903,340.356842 208.018997,350.666046 
	C212.440887,361.369293 216.898178,372.057983 221.855408,383.993988 
	C226.533859,372.522888 230.790314,362.086517 235.484985,350.995392 
M70.310631,217.961502 
	C67.204430,219.159058 64.098221,220.356598 60.151257,221.878296 
	C61.971344,222.839447 63.003937,223.496689 64.118050,223.956375 
	C82.787315,231.659454 101.537163,239.173340 120.102631,247.118271 
	C125.951164,249.621109 131.229630,251.404419 137.157669,247.496353 
	C139.671692,245.839005 142.822830,245.159744 145.661896,243.981735 
	C157.125565,239.225159 168.580475,234.447433 179.433716,229.929337 
	C179.433716,224.276901 179.433716,219.308777 179.433716,214.074341 
	C165.973557,208.457886 152.105667,203.047531 138.589371,196.868118 
	C132.112030,193.906769 126.667908,193.903763 120.126648,196.865204 
	C103.942085,204.192474 87.391403,210.711090 70.310631,217.961502 
M225.487885,68.992882 
	C224.360062,66.358650 223.232224,63.724419 221.777634,60.327003 
	C212.925949,81.679588 204.398041,102.063446 196.077942,122.531769 
	C194.884094,125.468750 193.307144,129.335831 194.267487,131.882584 
	C199.628357,146.099350 205.858093,159.985641 211.467865,174.113129 
	C213.159073,178.372223 214.895782,181.020691 219.975754,179.074829 
	C221.281815,178.574524 223.191437,178.503510 224.401337,179.096786 
	C229.659470,181.675049 230.588593,178.041077 232.047653,174.409470 
	C237.713394,160.307709 243.597244,146.293503 249.248123,132.185898 
	C249.850128,130.682999 250.026047,128.552811 249.440689,127.099991 
	C241.707031,107.905510 233.801376,88.780334 225.487885,68.992882 
M291.305878,318.052887 
	C306.080994,324.286591 320.856110,330.520294 336.200043,336.993988 
	C328.739899,318.803986 321.805176,301.237946 314.297455,283.920349 
	C311.393097,277.221039 310.288055,269.629822 300.868073,266.636414 
	C286.588654,262.098846 272.961304,255.474304 259.150177,249.520035 
	C255.154144,247.797287 253.747253,250.824966 251.806641,252.798370 
	C250.209747,254.422287 247.748703,255.317703 249.391129,259.062286 
	C255.490601,272.968536 260.881134,287.184052 266.725037,301.205444 
	C268.016388,304.303833 269.374420,308.267548 271.919464,309.769653 
	C277.718628,313.192322 284.272827,315.335724 291.305878,318.052887 
M165.047913,186.549820 
	C172.654083,189.573517 180.260269,192.597198 188.140213,195.729721 
	C189.981537,193.775940 192.072510,192.014099 193.534393,189.831009 
	C194.380875,188.566910 194.924438,186.336929 194.395599,185.031128 
	C188.084686,169.447891 181.629379,153.920883 174.962326,138.486969 
	C174.136551,136.575348 172.146057,134.650803 170.223969,133.811111 
	C155.847275,127.530403 141.364563,121.491035 126.887863,115.441185 
	C120.756538,112.878883 114.559746,110.473267 107.563644,107.663460 
	C108.610718,110.310020 109.237869,111.946877 109.902908,113.568184 
	C117.025200,130.932022 124.280434,148.242996 131.204361,165.685516 
	C133.339417,171.064041 136.016525,175.110123 141.915680,177.075500 
	C149.567429,179.624756 156.933701,183.030975 165.047913,186.549820 
M123.936615,297.390961 
	C118.630714,310.104767 113.324814,322.818573 107.775208,336.116333 
	C109.303429,335.861725 110.128273,335.874695 110.828445,335.585632 
	C128.461182,328.306793 146.141708,321.137543 163.659805,313.591431 
	C168.020905,311.712860 173.226044,311.112366 175.450165,305.277191 
	C180.570786,291.842865 186.457138,278.702606 191.853729,265.370544 
	C195.797241,255.628311 195.670151,255.576859 187.710571,248.481888 
	C173.890457,254.091690 160.051559,259.457825 146.448318,265.366516 
	C141.659088,267.446777 135.637573,267.973846 133.295593,274.193634 
	C130.449005,281.753540 127.162918,289.147949 123.936615,297.390961 
M313.554657,162.946976 
	C316.378235,155.905655 319.151184,148.843506 322.036987,141.827805 
	C326.613190,130.702499 331.264862,119.608253 336.208496,107.722031 
	C333.767212,108.626373 332.140137,109.175056 330.554443,109.824783 
	C313.215942,116.929253 295.841888,123.950134 278.585846,131.249893 
	C275.162994,132.697861 270.585114,134.506607 269.291016,137.385590 
	C261.837250,153.968353 255.210541,170.922882 248.171478,188.073196 
	C249.350632,189.106766 250.627945,189.967926 251.574402,191.104584 
	C254.381790,194.476105 256.844116,195.658249 261.607758,193.354996 
	C271.906433,188.375519 282.768066,184.565598 293.371704,180.209824 
	C301.709198,176.784943 311.355164,174.855530 313.554657,162.946976 
M233.439804,200.890930 
	C223.047958,194.288559 206.931290,198.804077 200.942215,210.059891 
	C194.761124,221.676620 198.321518,236.385666 209.624863,242.810287 
	C217.530396,247.303604 225.945679,247.871521 233.771103,242.931061 
	C241.284332,238.187714 246.041443,231.403000 246.038849,221.928467 
	C246.036301,212.637711 240.997528,206.373596 233.439804,200.890930 
z"/>
<path fill="#FFFFFF" opacity="1.000000" stroke="none" 
	d="
M443.000000,205.531342 
	C442.334839,201.585922 441.526917,197.187866 441.029449,192.754974 
	C438.974945,174.447708 434.053375,156.899918 427.379791,139.781189 
	C419.975342,120.787552 410.184387,102.997032 397.393860,87.275719 
	C387.458923,75.064369 375.971802,64.024414 364.496582,53.181374 
	C350.957550,40.388203 335.056854,30.825895 318.315216,22.758629 
	C299.414093,13.650757 279.661835,7.104279 258.853912,4.018167 
	C252.719315,3.108316 246.538208,2.512063 240.189209,1.386048 
	C307.594055,1.000000 375.188080,1.000000 443.000000,1.000000 
	C443.000000,69.020737 443.000000,137.041718 443.000000,205.531342 
z"/>
<path fill="#FFFFFF" opacity="1.000000" stroke="none" 
	d="
M240.468658,443.000000 
	C243.919601,442.336456 247.818741,441.497528 251.762100,441.037750 
	C278.029449,437.975189 302.901459,430.094299 325.881958,417.302063 
	C339.289124,409.838898 351.942596,400.746552 364.012268,391.218201 
	C383.766113,375.623688 399.816620,356.457306 412.530365,334.761322 
	C424.632019,314.109863 433.755127,292.134827 437.962097,268.413269 
	C439.726807,258.462830 440.823334,248.393906 442.611816,238.189423 
	C443.000000,306.259979 443.000000,374.519989 443.000000,443.000000 
	C375.645935,443.000000 308.291626,443.000000 240.468658,443.000000 
z"/>
<path fill="#FFFFFF" opacity="1.000000" stroke="none" 
	d="
M1.000000,242.468658 
	C1.653673,245.418198 2.546039,248.810471 2.920590,252.258987 
	C4.751995,269.120880 9.018354,285.398438 15.109437,301.150635 
	C22.872667,321.227203 32.956619,340.108734 46.517517,356.925964 
	C53.009151,364.976379 59.488140,373.172607 66.943954,380.284790 
	C90.035301,402.312042 116.347084,419.312897 146.610260,430.116241 
	C162.592300,435.821503 178.994232,439.335815 195.659805,441.943634 
	C198.266037,442.351471 200.968018,442.147278 203.812866,442.613037 
	C136.406677,443.000000 68.813339,443.000000 1.000000,443.000000 
	C1.000000,376.312592 1.000000,309.624969 1.000000,242.468658 
z"/>
<path fill="#FFFFFF" opacity="1.000000" stroke="none" 
	d="
M203.531342,1.000000 
	C200.079895,1.663695 196.181702,2.527893 192.236176,2.958818 
	C164.906601,5.943707 139.470764,14.817974 115.490143,27.943174 
	C100.172760,36.326767 86.149307,46.521748 73.069527,58.230087 
	C50.163464,78.734398 32.924252,103.202263 20.075748,130.890747 
	C12.350845,147.537872 7.151531,165.054550 4.051394,183.146988 
	C3.003981,189.259705 2.514936,195.468124 1.385356,201.816406 
	C1.000000,135.072601 1.000000,68.145210 1.000000,1.000000 
	C68.354073,1.000000 135.708374,1.000000 203.531342,1.000000 
z"/>
<path fill="#FFFFFF" opacity="1.000000" stroke="none" 
	d="
M239.000641,395.001282 
	C248.287048,372.552124 257.509064,350.490997 266.866547,328.105835 
	C298.414154,341.735138 329.626801,355.219757 361.536896,369.005646 
	C323.017792,404.218628 278.572083,422.727203 226.580460,424.828796 
	C230.815933,414.737152 234.876099,405.063232 239.000641,395.001282 
M269.697906,401.072998 
	C270.678497,400.964020 271.711304,401.017609 272.631897,400.721832 
	C288.383392,395.661194 303.816132,389.794434 317.884491,380.952423 
	C325.200348,376.354340 332.132355,371.145477 339.864105,365.777710 
	C332.350525,362.512573 326.130005,359.809357 319.876282,357.091705 
	C318.476837,358.066742 317.032990,359.098358 315.563721,360.092499 
	C296.250336,373.160248 275.209595,381.998016 252.201462,386.082123 
	C250.737045,386.342072 248.658722,386.990723 248.137375,388.071716 
	C245.417908,393.710419 243.109955,399.547577 240.658813,405.315704 
	C240.929962,405.859589 241.201096,406.403473 241.472244,406.947357 
	C250.642914,405.137604 259.813568,403.327850 269.697906,401.072998 
z"/>
<path fill="#FFFFFF" opacity="1.000000" stroke="none" 
	d="
M20.000137,240.034119 
	C19.597612,235.509552 19.195002,231.449005 18.731150,226.770798 
	C51.188381,240.186203 82.977531,253.325485 114.859627,266.503174 
	C101.795410,298.023102 88.738113,329.526337 75.212868,362.158600 
	C69.997276,356.058563 64.828476,350.991119 60.831230,345.125305 
	C53.535809,334.419464 45.987324,323.709900 40.261211,312.151367 
	C31.264984,293.991974 24.402769,274.909058 21.973686,254.538818 
	C21.414185,249.846863 20.663017,245.177750 20.000137,240.034119 
M42.006790,268.351868 
	C49.060032,294.413818 60.812744,318.071747 78.361130,339.737518 
	C81.071510,333.400269 83.670403,327.725281 85.852806,321.894440 
	C86.309097,320.675323 85.632584,318.601593 84.796394,317.393646 
	C71.158661,297.692657 61.934231,276.183167 57.771816,252.539795 
	C57.503319,251.014648 57.175636,248.674454 56.194241,248.235062 
	C50.100449,245.506836 43.811932,243.213547 36.725479,240.438126 
	C38.612434,250.138245 40.301136,258.819214 42.006790,268.351868 
z"/>
<path fill="#FFFFFF" opacity="1.000000" stroke="none" 
	d="
M406.381226,234.261765 
	C412.578033,231.772720 418.432251,229.482193 424.616669,227.062454 
	C422.691132,278.933472 403.945435,323.621094 368.469086,362.148346 
	C355.151367,330.051483 342.014587,298.390625 328.836670,266.630646 
	C354.726501,255.842255 380.382538,245.151260 406.381226,234.261765 
M357.094391,320.515686 
	C359.720703,326.651978 362.347015,332.788239 365.351868,339.809052 
	C389.088165,310.382751 402.470154,277.929688 406.462891,240.482651 
	C399.821136,243.194199 394.098175,245.337479 388.585968,247.929062 
	C387.346680,248.511734 386.347687,250.572189 386.075745,252.101288 
	C381.661682,276.922852 371.816620,299.387238 357.094391,320.515686 
z"/>
<path fill="#FFFFFF" opacity="1.000000" stroke="none" 
	d="
M286.090851,29.965204 
	C320.211700,40.856457 347.686615,61.604736 361.472717,75.370293 
	C329.661804,88.515099 298.127930,101.545425 266.245728,114.719688 
	C253.116440,83.143028 239.938858,51.450249 226.424881,18.948402 
	C247.111176,20.539301 266.867188,22.582281 286.090851,29.965204 
M245.061523,49.387962 
	C246.547668,54.800022 249.562805,57.362724 255.624100,58.548031 
	C277.936493,62.911308 298.369263,72.153580 317.332977,84.704857 
	C318.743286,85.638260 321.213165,86.093910 322.734772,85.533783 
	C328.166748,83.534157 333.402039,81.000275 339.400604,78.366066 
	C310.387238,55.013306 278.017120,41.369564 240.209915,37.600140 
	C242.155197,42.138050 243.541809,45.372711 245.061523,49.387962 
z"/>
<path fill="#FFFFFF" opacity="1.000000" stroke="none" 
	d="
M400.010864,207.001190 
	C376.213013,197.182175 352.803955,187.427673 329.080841,177.542297 
	C342.186249,145.963547 355.268616,114.440285 368.426147,82.735939 
	C396.175964,109.512535 423.262238,159.412888 424.596985,217.109863 
	C416.453308,213.729462 408.426483,210.397583 400.010864,207.001190 
M405.994537,201.093140 
	C404.449310,192.306335 403.376587,183.403931 401.261078,174.756638 
	C396.770752,156.401825 389.309235,139.215561 379.020203,123.340828 
	C374.929230,117.028946 370.392273,111.006157 365.626221,104.238075 
	C362.469299,111.578392 359.791656,117.804253 357.060303,124.155090 
	C370.899811,143.542801 380.865936,164.765244 385.297882,188.462662 
	C385.816254,191.234344 386.912781,194.928284 388.966614,196.173325 
	C393.602173,198.983414 398.992859,200.559143 404.115875,202.534546 
	C404.583527,202.714874 405.335999,202.156494 405.994537,201.093140 
z"/>
<path fill="#FFFFFF" opacity="1.000000" stroke="none" 
	d="
M210.448257,19.812031 
	C212.607010,19.355873 214.347992,19.057238 217.202682,18.567564 
	C203.768936,51.080013 190.683487,82.749496 177.441528,114.797752 
	C146.017059,101.802750 114.481155,88.761658 81.835464,75.261635 
	C118.881065,41.858284 160.710251,22.323414 210.448257,19.812031 
M105.689178,78.932365 
	C109.231361,80.522133 112.733452,82.210205 116.326256,83.675888 
	C120.477745,85.369492 124.274124,86.995796 128.960251,83.753906 
	C147.974884,70.599449 168.804886,61.619846 191.772552,57.901276 
	C193.273819,57.658218 195.299942,56.644989 195.881027,55.420235 
	C198.493317,49.914219 200.671616,44.202309 203.362869,37.703999 
	C198.011154,38.214710 193.249146,38.224815 188.685028,39.180248 
	C166.850983,43.750896 145.821930,50.660210 126.864540,62.709335 
	C119.324516,67.501701 112.343079,73.172905 105.689178,78.932365 
z"/>
<path fill="#FFFFFF" opacity="1.000000" stroke="none" 
	d="
M33.264610,147.382797 
	C40.621155,130.445465 48.842426,114.439857 60.026207,100.138351 
	C64.715080,94.142349 69.685730,88.366699 74.980278,81.942421 
	C88.506721,114.561089 101.565590,146.052216 114.629898,177.556473 
	C83.075569,190.616806 51.426170,203.716492 19.019369,217.129669 
	C19.368240,211.019119 18.979378,205.089951 20.165762,199.494797 
	C23.420746,184.143829 27.314829,168.927658 31.019522,153.673584 
	C31.512325,151.644455 32.373428,149.704788 33.264610,147.382797 
M43.520729,170.978363 
	C41.238186,181.499481 38.955643,192.020615 36.373253,203.923843 
	C41.020016,201.930618 44.247673,200.072052 47.723694,199.158951 
	C53.955399,197.522018 57.102058,194.518829 58.488186,187.537491 
	C62.842720,165.605591 71.841476,145.424271 84.534592,126.939987 
	C85.301361,125.823380 86.213264,124.046478 85.836441,123.029167 
	C83.569862,116.910110 80.946327,110.923271 78.290802,104.527222 
	C67.032822,117.810661 58.554523,132.113937 51.997318,147.510803 
	C48.851910,154.896484 46.593746,162.660049 43.520729,170.978363 
z"/>
<path fill="#FFFFFF" opacity="1.000000" stroke="none" 
	d="
M163.850220,416.023804 
	C143.738815,410.480591 125.619392,401.505951 108.768456,390.095978 
	C99.744331,383.985657 91.401138,376.869659 81.696075,369.395355 
	C114.326637,355.849487 145.609375,342.863190 177.561340,329.599030 
	C190.727783,361.401581 203.815140,393.013062 217.092850,425.084351 
	C198.834137,423.601074 181.146469,422.237213 163.850220,416.023804 
M118.400444,376.063843 
	C141.504837,392.986389 186.960159,408.133240 202.853424,405.206848 
	C200.747635,400.148346 198.926605,394.940338 196.389587,390.108246 
	C195.435318,388.290771 193.002487,386.733978 190.928589,386.116180 
	C184.587540,384.227142 178.026962,383.080505 171.671844,381.232239 
	C155.521286,376.535156 140.855469,368.726807 126.889572,359.469360 
	C125.604012,358.617218 123.402374,358.046844 122.077042,358.545074 
	C116.283417,360.723083 110.656174,363.343597 104.596130,365.964569 
	C109.191910,369.472809 113.432053,372.709595 118.400444,376.063843 
z"/>
<path fill="#FFFFFF" opacity="1.000000" stroke="none" 
	d="
M352.080475,208.982361 
	C362.604004,213.204544 372.734222,217.405670 383.677673,221.944046 
	C377.789886,224.442993 372.465027,226.771164 367.088196,228.972412 
	C350.508514,235.760101 333.795013,242.238815 317.386383,249.415726 
	C312.450348,251.574677 309.352539,248.598785 305.814270,247.206909 
	C292.891724,242.123459 280.274292,236.256271 267.304962,231.305038 
	C263.656464,229.912155 263.824615,228.136887 264.253204,225.415588 
	C264.530273,223.656540 265.498749,221.512131 264.844879,220.188965 
	C262.414124,215.269745 265.189697,213.566910 269.006622,211.981247 
	C283.175537,206.095215 297.265961,200.015808 311.512482,194.326157 
	C313.352905,193.591141 316.122864,194.243866 318.142303,195.052628 
	C329.378479,199.552643 340.515930,204.299149 352.080475,208.982361 
z"/>
<path fill="#FFFFFF" opacity="1.000000" stroke="none" 
	d="
M235.265869,351.322754 
	C230.790314,362.086517 226.533859,372.522888 221.855408,383.993988 
	C216.898178,372.057983 212.440887,361.369293 208.018997,350.666046 
	C203.759903,340.356842 200.084335,329.757050 195.081131,319.824554 
	C192.346710,314.396027 194.747391,310.495239 196.418335,306.293457 
	C201.739578,292.912567 207.390411,279.660614 213.126953,266.451355 
	C213.567459,265.437012 215.643082,264.704742 217.010559,264.612823 
	C219.617111,264.437561 222.728317,265.780853 224.795319,264.776276 
	C229.553986,262.463470 230.593353,265.622253 231.830841,268.593658 
	C237.920349,283.215515 243.972717,297.854248 249.808655,312.578003 
	C250.367172,313.987122 249.640015,316.144928 248.999512,317.751770 
	C244.570419,328.863159 240.005951,339.920624 235.265869,351.322754 
z"/>
<path fill="#FFFFFF" opacity="1.000000" stroke="none" 
	d="
M70.649231,217.758072 
	C87.391403,210.711090 103.942085,204.192474 120.126648,196.865204 
	C126.667908,193.903763 132.112030,193.906769 138.589371,196.868118 
	C152.105667,203.047531 165.973557,208.457886 179.433716,214.074341 
	C179.433716,219.308777 179.433716,224.276901 179.433716,229.929337 
	C168.580475,234.447433 157.125565,239.225159 145.661896,243.981735 
	C142.822830,245.159744 139.671692,245.839005 137.157669,247.496353 
	C131.229630,251.404419 125.951164,249.621109 120.102631,247.118271 
	C101.537163,239.173340 82.787315,231.659454 64.118050,223.956375 
	C63.003937,223.496689 61.971344,222.839447 60.151257,221.878296 
	C64.098221,220.356598 67.204430,219.159058 70.649231,217.758072 
z"/>
<path fill="#FFFFFF" opacity="1.000000" stroke="none" 
	d="
M225.713318,69.315353 
	C233.801376,88.780334 241.707031,107.905510 249.440689,127.099991 
	C250.026047,128.552811 249.850128,130.682999 249.248123,132.185898 
	C243.597244,146.293503 237.713394,160.307709 232.047653,174.409470 
	C230.588593,178.041077 229.659470,181.675049 224.401337,179.096786 
	C223.191437,178.503510 221.281815,178.574524 219.975754,179.074829 
	C214.895782,181.020691 213.159073,178.372223 211.467865,174.113129 
	C205.858093,159.985641 199.628357,146.099350 194.267487,131.882584 
	C193.307144,129.335831 194.884094,125.468750 196.077942,122.531769 
	C204.398041,102.063446 212.925949,81.679588 221.777634,60.327003 
	C223.232224,63.724419 224.360062,66.358650 225.713318,69.315353 
z"/>
<path fill="#FFFFFF" opacity="1.000000" stroke="none" 
	d="
M290.913055,318.025879 
	C284.272827,315.335724 277.718628,313.192322 271.919464,309.769653 
	C269.374420,308.267548 268.016388,304.303833 266.725037,301.205444 
	C260.881134,287.184052 255.490601,272.968536 249.391129,259.062286 
	C247.748703,255.317703 250.209747,254.422287 251.806641,252.798370 
	C253.747253,250.824966 255.154144,247.797287 259.150177,249.520035 
	C272.961304,255.474304 286.588654,262.098846 300.868073,266.636414 
	C310.288055,269.629822 311.393097,277.221039 314.297455,283.920349 
	C321.805176,301.237946 328.739899,318.803986 336.200043,336.993988 
	C320.856110,330.520294 306.080994,324.286591 290.913055,318.025879 
z"/>
<path fill="#FFFFFF" opacity="1.000000" stroke="none" 
	d="
M164.735382,186.309052 
	C156.933701,183.030975 149.567429,179.624756 141.915680,177.075500 
	C136.016525,175.110123 133.339417,171.064041 131.204361,165.685516 
	C124.280434,148.242996 117.025200,130.932022 109.902908,113.568184 
	C109.237869,111.946877 108.610718,110.310020 107.563644,107.663460 
	C114.559746,110.473267 120.756538,112.878883 126.887863,115.441185 
	C141.364563,121.491035 155.847275,127.530403 170.223969,133.811111 
	C172.146057,134.650803 174.136551,136.575348 174.962326,138.486969 
	C181.629379,153.920883 188.084686,169.447891 194.395599,185.031128 
	C194.924438,186.336929 194.380875,188.566910 193.534393,189.831009 
	C192.072510,192.014099 189.981537,193.775940 188.140213,195.729721 
	C180.260269,192.597198 172.654083,189.573517 164.735382,186.309052 
z"/>
<path fill="#FFFFFF" opacity="1.000000" stroke="none" 
	d="
M124.001785,297.002441 
	C127.162918,289.147949 130.449005,281.753540 133.295593,274.193634 
	C135.637573,267.973846 141.659088,267.446777 146.448318,265.366516 
	C160.051559,259.457825 173.890457,254.091690 187.710571,248.481888 
	C195.670151,255.576859 195.797241,255.628311 191.853729,265.370544 
	C186.457138,278.702606 180.570786,291.842865 175.450165,305.277191 
	C173.226044,311.112366 168.020905,311.712860 163.659805,313.591431 
	C146.141708,321.137543 128.461182,328.306793 110.828445,335.585632 
	C110.128273,335.874695 109.303429,335.861725 107.775208,336.116333 
	C113.324814,322.818573 118.630714,310.104767 124.001785,297.002441 
z"/>
<path fill="#FFFFFF" opacity="1.000000" stroke="none" 
	d="
M313.311890,163.257919 
	C311.355164,174.855530 301.709198,176.784943 293.371704,180.209824 
	C282.768066,184.565598 271.906433,188.375519 261.607758,193.354996 
	C256.844116,195.658249 254.381790,194.476105 251.574402,191.104584 
	C250.627945,189.967926 249.350632,189.106766 248.171478,188.073196 
	C255.210541,170.922882 261.837250,153.968353 269.291016,137.385590 
	C270.585114,134.506607 275.162994,132.697861 278.585846,131.249893 
	C295.841888,123.950134 313.215942,116.929253 330.554443,109.824783 
	C332.140137,109.175056 333.767212,108.626373 336.208496,107.722031 
	C331.264862,119.608253 326.613190,130.702499 322.036987,141.827805 
	C319.151184,148.843506 316.378235,155.905655 313.311890,163.257919 
z"/>
<path fill="#FFFFFF" opacity="1.000000" stroke="none" 
	d="
M233.812683,200.962219 
	C240.997528,206.373596 246.036301,212.637711 246.038849,221.928467 
	C246.041443,231.403000 241.284332,238.187714 233.771103,242.931061 
	C225.945679,247.871521 217.530396,247.303604 209.624863,242.810287 
	C198.321518,236.385666 194.761124,221.676620 200.942215,210.059891 
	C206.931290,198.804077 223.047958,194.288559 233.812683,200.962219 
z"/>
<path fill="#0755E9" opacity="1.000000" stroke="none" 
	d="
M269.341064,401.295532 
	C259.813568,403.327850 250.642914,405.137604 241.472244,406.947357 
	C241.201096,406.403473 240.929962,405.859589 240.658813,405.315704 
	C243.109955,399.547577 245.417908,393.710419 248.137375,388.071716 
	C248.658722,386.990723 250.737045,386.342072 252.201462,386.082123 
	C275.209595,381.998016 296.250336,373.160248 315.563721,360.092499 
	C317.032990,359.098358 318.476837,358.066742 319.876282,357.091705 
	C326.130005,359.809357 332.350525,362.512573 339.864105,365.777710 
	C332.132355,371.145477 325.200348,376.354340 317.884491,380.952423 
	C303.816132,389.794434 288.383392,395.661194 272.631897,400.721832 
	C271.711304,401.017609 270.678497,400.964020 269.341064,401.295532 
z"/>
<path fill="#0755E9" opacity="1.000000" stroke="none" 
	d="
M41.998314,267.926025 
	C40.301136,258.819214 38.612434,250.138245 36.725479,240.438126 
	C43.811932,243.213547 50.100449,245.506836 56.194241,248.235062 
	C57.175636,248.674454 57.503319,251.014648 57.771816,252.539795 
	C61.934231,276.183167 71.158661,297.692657 84.796394,317.393646 
	C85.632584,318.601593 86.309097,320.675323 85.852806,321.894440 
	C83.670403,327.725281 81.071510,333.400269 78.361130,339.737518 
	C60.812744,318.071747 49.060032,294.413818 41.998314,267.926025 
z"/>
<path fill="#0755E9" opacity="1.000000" stroke="none" 
	d="
M357.074188,320.135620 
	C371.816620,299.387238 381.661682,276.922852 386.075745,252.101288 
	C386.347687,250.572189 387.346680,248.511734 388.585968,247.929062 
	C394.098175,245.337479 399.821136,243.194199 406.462891,240.482651 
	C402.470154,277.929688 389.088165,310.382751 365.351868,339.809052 
	C362.347015,332.788239 359.720703,326.651978 357.074188,320.135620 
z"/>
<path fill="#0755E9" opacity="1.000000" stroke="none" 
	d="
M244.994965,48.997665 
	C243.541809,45.372711 242.155197,42.138050 240.209915,37.600140 
	C278.017120,41.369564 310.387238,55.013306 339.400604,78.366066 
	C333.402039,81.000275 328.166748,83.534157 322.734772,85.533783 
	C321.213165,86.093910 318.743286,85.638260 317.332977,84.704857 
	C298.369263,72.153580 277.936493,62.911308 255.624100,58.548031 
	C249.562805,57.362724 246.547668,54.800022 244.994965,48.997665 
z"/>
<path fill="#0755E9" opacity="1.000000" stroke="none" 
	d="
M405.975342,201.517151 
	C405.335999,202.156494 404.583527,202.714874 404.115875,202.534546 
	C398.992859,200.559143 393.602173,198.983414 388.966614,196.173325 
	C386.912781,194.928284 385.816254,191.234344 385.297882,188.462662 
	C380.865936,164.765244 370.899811,143.542801 357.060303,124.155090 
	C359.791656,117.804253 362.469299,111.578392 365.626221,104.238075 
	C370.392273,111.006157 374.929230,117.028946 379.020203,123.340828 
	C389.309235,139.215561 396.770752,156.401825 401.261078,174.756638 
	C403.376587,183.403931 404.449310,192.306335 405.975342,201.517151 
z"/>
<path fill="#0755E9" opacity="1.000000" stroke="none" 
	d="
M105.398254,78.688187 
	C112.343079,73.172905 119.324516,67.501701 126.864540,62.709335 
	C145.821930,50.660210 166.850983,43.750896 188.685028,39.180248 
	C193.249146,38.224815 198.011154,38.214710 203.362869,37.703999 
	C200.671616,44.202309 198.493317,49.914219 195.881027,55.420235 
	C195.299942,56.644989 193.273819,57.658218 191.772552,57.901276 
	C168.804886,61.619846 147.974884,70.599449 128.960251,83.753906 
	C124.274124,86.995796 120.477745,85.369492 116.326256,83.675888 
	C112.733452,82.210205 109.231361,80.522133 105.398254,78.688187 
z"/>
<path fill="#0755E9" opacity="1.000000" stroke="none" 
	d="
M43.727249,170.615417 
	C46.593746,162.660049 48.851910,154.896484 51.997318,147.510803 
	C58.554523,132.113937 67.032822,117.810661 78.290802,104.527222 
	C80.946327,110.923271 83.569862,116.910110 85.836441,123.029167 
	C86.213264,124.046478 85.301361,125.823380 84.534592,126.939987 
	C71.841476,145.424271 62.842720,165.605591 58.488186,187.537491 
	C57.102058,194.518829 53.955399,197.522018 47.723694,199.158951 
	C44.247673,200.072052 41.020016,201.930618 36.373253,203.923843 
	C38.955643,192.020615 41.238186,181.499481 43.727249,170.615417 
z"/>
<path fill="#0755E9" opacity="1.000000" stroke="none" 
	d="
M118.036316,376.005096 
	C113.432053,372.709595 109.191910,369.472809 104.596130,365.964569 
	C110.656174,363.343597 116.283417,360.723083 122.077042,358.545074 
	C123.402374,358.046844 125.604012,358.617218 126.889572,359.469360 
	C140.855469,368.726807 155.521286,376.535156 171.671844,381.232239 
	C178.026962,383.080505 184.587540,384.227142 190.928589,386.116180 
	C193.002487,386.733978 195.435318,388.290771 196.389587,390.108246 
	C198.926605,394.940338 200.747635,400.148346 202.846466,405.209595 
	C186.960159,408.133240 141.504837,392.986389 118.036316,376.005096 
z"/>
</svg>